<?xml version="1.0" standalone="no"?><!DOCTYPE svg PUBLIC "-//W3C//DTD SVG 1.1//EN" "http://www.w3.org/Graphics/SVG/1.1/DTD/svg11.dtd"><svg class="icon" width="200px" height="200.00px" viewBox="0 0 1024 1024" version="1.1" xmlns="http://www.w3.org/2000/svg"><path fill="#000000" d="M853.333333 956.586667H170.666667c-66.030933 0-102.4-36.369067-102.4-102.4V256c0-60.1088 30.122667-95.6416 85.333333-101.5296V85.333333a17.066667 17.066667 0 0 1 17.066667-17.066666h682.666666a17.066667 17.066667 0 0 1 17.066667 17.066666v152.746667h68.266667a17.066667 17.066667 0 0 1 17.066666 17.066667v599.04c0 66.030933-36.369067 102.4-102.4 102.4zM170.666667 187.733333c-47.223467 0-68.266667 21.0432-68.266667 68.266667v598.186667c0 47.223467 21.0432 68.266667 68.266667 68.266666h682.666666c47.223467 0 68.266667-21.0432 68.266667-68.266666v-581.973334H512a17.066667 17.066667 0 0 1-17.066667-17.066666V187.733333H170.666667z m358.4 50.346667h307.2V102.4H187.733333v51.2h324.266667a17.066667 17.066667 0 0 1 17.066667 17.066667v67.413333zM341.333333 768V426.666667h341.333334v341.333333H341.333333z m103.253334-256v170.666667L597.333333 597.333333l-152.746666-85.333333zM682.666667 785.066667H341.333333a17.066667 17.066667 0 0 1-17.066666-17.066667V426.666667a17.066667 17.066667 0 0 1 17.066666-17.066667h341.333334a17.066667 17.066667 0 0 1 17.066666 17.066667v341.333333a17.066667 17.066667 0 0 1-17.066666 17.066667z m-324.266667-34.133334h307.2V443.733333H358.4v307.2z" /></svg>