<?xml version="1.0" standalone="no"?><!DOCTYPE svg PUBLIC "-//W3C//DTD SVG 1.1//EN" "http://www.w3.org/Graphics/SVG/1.1/DTD/svg11.dtd"><svg class="icon" width="200px" height="200.00px" viewBox="0 0 1024 1024" version="1.1" xmlns="http://www.w3.org/2000/svg"><path fill="#000000" d="M42.666667 217.6c-12.8 0-21.333333-8.533333-21.333334-21.333333V87.466667C21.333333 51.2 51.2 21.333333 87.466667 21.333333H149.333333c12.8 0 21.333333 8.533333 21.333334 21.333334s-10.666667 21.333333-21.333334 21.333333H87.466667C74.666667 64 64 74.666667 64 87.466667v108.8c0 12.8-8.533333 21.333333-21.333333 21.333333zM149.333333 1002.666667H87.466667C51.2 1002.666667 21.333333 972.8 21.333333 936.533333v-98.133333c0-12.8 8.533333-21.333333 21.333334-21.333333s21.333333 8.533333 21.333333 21.333333v98.133333c0 12.8 10.666667 23.466667 23.466667 23.466667H149.333333c12.8 0 21.333333 8.533333 21.333334 21.333333s-10.666667 21.333333-21.333334 21.333334zM936.533333 1002.666667H874.666667c-12.8 0-21.333333-8.533333-21.333334-21.333334s8.533333-21.333333 21.333334-21.333333h61.866666c12.8 0 23.466667-10.666667 23.466667-23.466667v-98.133333c0-12.8 8.533333-21.333333 21.333333-21.333333s21.333333 8.533333 21.333334 21.333333v98.133333c0 36.266667-29.866667 66.133333-66.133334 66.133334zM981.333333 217.6c-12.8 0-21.333333-8.533333-21.333333-21.333333V87.466667c0-12.8-10.666667-23.466667-23.466667-23.466667H874.666667c-12.8 0-21.333333-8.533333-21.333334-21.333333s8.533333-21.333333 21.333334-21.333334h61.866666C972.8 21.333333 1002.666667 51.2 1002.666667 87.466667v108.8c0 12.8-8.533333 21.333333-21.333334 21.333333zM512 537.6c-106.666667 0-192-87.466667-192-192 0-106.666667 87.466667-192 192-192s192 87.466667 192 192c0 106.666667-87.466667 192-192 192z m0-341.333333c-83.2 0-149.333333 68.266667-149.333333 149.333333s68.266667 149.333333 149.333333 149.333333c83.2 0 149.333333-68.266667 149.333333-149.333333s-68.266667-149.333333-149.333333-149.333333zM759.466667 832H262.4c-21.333333 0-40.533333-10.666667-51.2-27.733333-12.8-17.066667-12.8-40.533333-6.4-59.733334C245.333333 650.666667 362.666667 554.666667 512 554.666667s266.666667 96 305.066667 189.866666c8.533333 19.2 6.4 42.666667-6.4 59.733334-10.666667 17.066667-29.866667 27.733333-51.2 27.733333zM512 597.333333c-128 0-232.533333 85.333333-266.666667 164.266667-2.133333 6.4-2.133333 12.8 2.133334 19.2 2.133333 6.4 8.533333 8.533333 14.933333 8.533333h497.066667c6.4 0 12.8-2.133333 17.066666-8.533333 4.266667-6.4 4.266667-12.8 2.133334-19.2C744.533333 682.666667 640 597.333333 512 597.333333z" /></svg>