<?xml version="1.0" standalone="no"?><!DOCTYPE svg PUBLIC "-//W3C//DTD SVG 1.1//EN" "http://www.w3.org/Graphics/SVG/1.1/DTD/svg11.dtd"><svg class="icon" width="200px" height="200.00px" viewBox="0 0 1024 1024" version="1.1" xmlns="http://www.w3.org/2000/svg"><path fill="#ffffff" d="M752.779277 614.774544c22.772498 0 41.198849-18.466262 41.198849-41.195779 0-13.119284-6.122673-24.787464-15.663319-32.329517l0.212856-0.25993c-31.702207-24.541861-66.94621-44.657755-105.004413-59.222002 48.439015-41.559066 79.256028-103.114295 79.256028-171.951647 0-125.12133-101.463639-226.585993-226.585993-226.585993-125.123377 0-226.587016 101.464663-226.587016 226.585993 0 68.837352 30.818036 130.392581 79.257051 171.951647-154.571154 59.301823-264.565398 208.763415-264.646242 384.297793l0 0.079821c0.080844 22.689607 18.507195 41.118004 41.198849 41.118004 22.770451 0 41.116981-18.428398 41.196802-41.118004 0-181.727662 147.894851-329.58158 329.58158-329.58158 74.497474 0 143.081036 25.128238 198.294595 66.945187C731.868244 610.484682 741.817205 614.774544 752.779277 614.774544zM526.193284 454.008059c-79.498561 0-144.190342-64.692805-144.190342-144.192389 0-79.498561 64.693828-144.191366 144.190342-144.191366 79.498561 0 144.191366 64.692805 144.191366 144.191366S605.691845 454.008059 526.193284 454.008059zM909.926191 752.851423 848.129453 752.851423l0-61.798785c0.001023-17.057115-13.839719-30.897857-30.897857-30.897857-17.099073 0-30.897857 13.840742-30.897857 30.897857l0 61.798785-61.796738 0c-17.097026 0-30.896834 13.838695-30.896834 30.897857 0 17.057115 13.799808 30.897857 30.896834 30.897857l61.796738 0 0 61.796738c0 17.059162 13.798785 30.895811 30.897857 30.895811 17.058139 0 30.897857-13.836649 30.897857-30.895811l0-61.796738 61.796738 0c17.058139 0 30.897857-13.840742 30.897857-30.897857C940.824049 766.691142 926.985353 752.851423 909.926191 752.851423z"  /></svg>